Coordinates
version=1
nRows=16
nColumns=40
inDegrees=yes

Units are S.I. units (second, meters, Newtons, ...)
Angles are in degrees.

endheader
time	pelvis_tilt	pelvis_list	pelvis_rotation	pelvis_tx	pelvis_ty	pelvis_tz	hip_flexion_r	hip_adduction_r	hip_rotation_r	knee_angle_r	knee_angle_r_beta	ankle_angle_r	subtalar_angle_r	mtp_angle_r	hip_flexion_l	hip_adduction_l	hip_rotation_l	knee_angle_l	knee_angle_l_beta	ankle_angle_l	subtalar_angle_l	mtp_angle_l	lumbar_extension	lumbar_bending	lumbar_rotation	arm_flex_r	arm_add_r	arm_rot_r	elbow_flex_r	pro_sup_r	wrist_flex_r	wrist_dev_r	arm_flex_l	arm_add_l	arm_rot_l	elbow_flex_l	pro_sup_l	wrist_flex_l	wrist_dev_l
     20.75250000	     -6.95312953	     -5.80295738	      1.01839900	      1.02703910	      0.91575018	      0.42795587	      4.27679145	     -2.43232278	    -12.59878085	     30.42172046	     30.42172046	     14.22007610	     -3.40838992	     -8.18019092	     30.57044644	     -7.01577887	      1.22450158	     29.87090461	     29.87090461	     10.21193103	    -11.70022131	      4.29333171	    -10.62616477	      4.26746961	      4.65273642	     42.66235971	    -14.17859997	      6.08158109	    121.95314808	     43.79727920	      0.00000000	      0.00000000	     -9.66397988	     -6.66834167	      4.37317089	     28.12196474	     44.40811691	      0.00000000	      0.00000000
     20.76400000	     -6.83966538	     -5.82768504	      0.66153722	      1.02702290	      0.91717078	      0.42549366	      5.62666916	     -2.75908359	    -11.82780269	     33.65321820	     33.65321820	     11.98149388	     -6.34180258	    -10.08646658	     29.66247900	     -6.96174675	      1.11782597	     29.68179660	     29.68179660	     10.68376375	    -12.09285941	      4.20628615	    -10.57069666	      4.32836154	      4.92596567	     40.04835068	    -14.37915976	      5.52333097	    120.41631747	     43.89057892	      0.00000000	      0.00000000	     -8.80902821	     -7.06610626	      4.29517956	     28.60700523	     44.49337303	      0.00000000	      0.00000000
     20.77550000	     -6.78292897	     -5.71217642	      0.26390292	      1.02685026	      0.91839354	      0.42311320	      7.27917656	     -3.38177152	    -11.43485655	     37.32441365	     37.32441365	     10.31774202	     -8.32302170	    -10.29067203	     28.77288663	     -6.82907269	      0.72313167	     29.41431367	     29.41431367	     11.07842332	    -12.25490717	      4.09891775	    -10.47140877	      4.25383869	      4.92073260	     37.48099039	    -14.66785461	      5.69997595	    118.82018880	     43.93132326	      0.00000000	      0.00000000	     -7.88537364	     -7.40931886	      4.16216451	     29.16902507	     44.54181161	      0.00000000	      0.00000000
     20.78700000	     -6.59105820	     -5.59709433	     -0.13044369	      1.02666537	      0.91961724	      0.42091840	      8.86428687	     -3.95322975	    -11.05982797	     40.98839074	     40.98839074	      8.54958454	    -10.42510799	    -10.10956353	     27.77661658	     -6.68913763	      0.39138160	     29.22114645	     29.22114645	     11.50067168	    -12.43508912	      3.96601670	    -10.54641164	      4.18438525	      4.94000733	     34.88823241	    -14.75045364	      5.87096115	    117.09842552	     43.97268825	      0.00000000	      0.00000000	     -6.93383711	     -7.83763057	      3.99900937	     29.78431663	     44.58883984	      0.00000000	      0.00000000
     20.79850000	     -6.64976341	     -5.48904322	     -0.61021474	      1.02625546	      0.92038326	      0.41908080	     10.87995729	     -4.35539179	    -10.45439634	     44.69575769	     44.69575769	      6.71808177	    -13.10694719	     -9.47649545	     26.98450663	     -6.58346450	      0.00692184	     28.87806776	     28.87806776	     11.87800456	    -12.67109121	      3.83163726	    -10.26514524	      4.09495392	      5.06042129	     32.34102259	    -15.01827908	      5.69691112	    114.69813021	     44.04835593	      0.00000000	      0.00000000	     -6.06160275	     -8.32949443	      3.76243349	     30.61028315	     44.64623623	      0.00000000	      0.00000000
     20.81000000	     -6.57941561	     -5.56102621	     -1.02489194	      1.02568236	      0.92128831	      0.41736637	     12.78519121	     -4.45459197	     -9.89734580	     48.25214521	     48.25214521	      5.18171883	    -15.57935331	     -7.42298879	     26.15608259	     -6.63885654	     -0.20290592	     28.65628553	     28.65628553	     12.13691764	    -12.91170467	      3.47331118	    -10.19081670	      4.22422981	      5.02672315	     30.14313681	    -14.70386200	      4.77885696	    111.01292764	     44.20224985	      0.00000000	      0.00000000	     -5.45297818	     -8.86219064	      3.32140974	     32.18301289	     44.74645733	      0.00000000	      0.00000000
     20.82150000	     -6.56278143	     -5.30156373	     -1.46939731	      1.02508780	      0.92194972	      0.41557962	     14.79834716	     -5.09260263	     -9.64896963	     51.73823073	     51.73823073	      3.87571501	    -17.09052843	     -6.19296955	     25.29784266	     -6.39782389	     -0.76770743	     28.30147972	     28.30147972	     12.46219137	    -12.88253840	      3.27865577	    -10.07316637	      4.01562308	      4.92127570	     27.72453458	    -14.76553708	      4.88868402	    108.72872240	     44.26628569	      0.00000000	      0.00000000	     -4.51997645	     -9.41190316	      3.04887451	     33.11302509	     44.80902692	      0.00000000	      0.00000000
     20.83300000	     -6.42101100	     -5.10344620	     -1.85988571	      1.02442584	      0.92266068	      0.41385662	     16.63662580	     -5.68020575	     -9.55880580	     54.93780011	     54.93780011	      2.85574953	    -18.15007787	     -4.94027542	     24.39842929	     -6.19877805	     -1.25873334	     28.08308722	     28.08308722	     12.82783064	    -12.84803229	      3.06393037	    -10.13617976	      3.85709010	      4.82369324	     25.31791258	    -14.79129693	      4.94152954	    106.29190286	     44.33476668	      0.00000000	      0.00000000	     -3.41617738	    -10.00067566	      2.79730945	     34.04002170	     44.86655636	      0.00000000	      0.00000000
     20.84450000	     -6.42323072	     -5.05926387	     -2.28265277	      1.02351743	      0.92318150	      0.41247630	     18.98467826	     -5.80681865	     -9.07383875	     58.53577290	     58.53577290	      4.99604946	    -17.96822893	      5.12444214	     23.59699268	     -6.20608133	     -1.79884215	     27.69510450	     27.69510450	     12.90413915	    -12.75991812	      2.05045410	     -9.96583272	      3.86789080	      3.93389014	     24.24437564	    -13.91064313	      4.67775623	    100.57987507	     44.56461977	      0.00000000	      0.00000000	     -3.64017147	    -10.78607788	      1.77990792	     37.26127851	     45.10390343	      0.00000000	      0.00000000
     20.85600000	     -6.32922219	     -4.86583941	     -2.64621858	      1.02267157	      0.92378321	      0.41093542	     20.86345933	     -6.25540120	     -8.93252631	     61.14581741	     61.14581741	      4.67695517	    -18.43342725	      6.65671127	     22.72320203	     -6.03887136	     -2.42052019	     27.37537548	     27.37537548	     13.26800535	    -12.42328638	      1.69159099	     -9.95396457	      3.73667872	      3.71339580	     22.29880247	    -13.69444825	      4.08754002	     96.82095962	     44.71195540	      0.00000000	      0.00000000	     -2.54387024	    -11.39129968	      1.45508146	     38.24697581	     45.20713819	      0.00000000	      0.00000000
     20.86750000	     -6.19322777	     -4.70994772	     -2.98519916	      1.02175803	      0.92446419	      0.40943551	     22.62301745	     -6.61523328	     -8.80467519	     63.33533766	     63.33533766	      4.39932603	    -18.66913104	      7.44586475	     21.80948371	     -5.90147339	     -3.03829593	     27.04755175	     27.04755175	     13.65553132	    -12.02896652	      1.40472731	    -10.04352988	      3.65792096	      3.81026455	     20.21995624	    -14.08732514	      3.86327401	     93.42937277	     44.82479623	      0.00000000	      0.00000000	     -1.13618399	    -11.97365230	      1.23983621	     39.30721322	     45.27581302	      0.00000000	      0.00000000
     20.87900000	     -6.10614503	     -4.56424408	     -3.28378409	      1.02073995	      0.92509632	      0.40809785	     24.41592137	     -6.84985405	     -8.61521483	     65.17908121	     65.17908121	      4.42043782	    -18.72560969	      8.57781247	     20.93442204	     -5.79946191	     -3.75715630	     26.66259981	     26.66259981	     14.01683600	    -11.39996998	      0.95726299	    -10.06718571	      3.56772420	      3.36553929	     18.65483558	    -13.69168838	      3.30574503	     89.03375661	     44.98370889	      0.00000000	      0.00000000	     -0.05361067	    -12.73063064	      1.20688605	     40.41799212	     45.33508180	      0.00000000	      0.00000000
     20.89050000	     -5.99376584	     -4.43006740	     -3.56421613	      1.01968496	      0.92575940	      0.40682740	     26.09417856	     -7.00569253	     -8.40798276	     66.57692617	     66.57692617	      4.32308548	    -18.67603215	      8.82934918	     20.02234143	     -5.69522142	     -4.45607529	     26.24255394	     26.24255394	     14.37706577	    -10.74955737	      0.55156018	    -10.15153845	      3.48744889	      3.06904530	     17.07155921	    -13.71010091	      3.02483637	     84.79902781	     45.12560875	      0.00000000	      0.00000000	      1.19226317	    -13.44129250	      1.22913420	     41.54705390	     45.39461050	      0.00000000	      0.00000000
     20.90200000	     -5.87945558	     -4.34416220	     -3.80673974	      1.01855925	      0.92645569	      0.40567660	     27.66109685	     -7.04564471	     -8.21722917	     67.49918430	     67.49918430	      4.05538595	    -18.54674360	      8.29008503	     19.09367394	     -5.63686269	     -5.14311333	     25.77883098	     25.77883098	     14.74678883	    -10.00427885	      0.16609171	    -10.26700364	      3.45857848	      2.86306745	     15.55834723	    -13.82987532	      2.67186499	     80.41713697	     45.27149792	      0.00000000	      0.00000000	      2.60684221	    -14.16143345	      1.31287137	     42.56207531	     45.44803189	      0.00000000	      0.00000000
     20.91350000	     -5.78834100	     -4.21742751	     -4.02481640	      1.01739501	      0.92709944	      0.40453651	     29.18979841	     -7.07951823	     -7.99291762	     68.03534123	     68.03534123	      3.88598588	    -18.23285166	      7.85034345	     18.14940609	     -5.47194841	     -5.68476931	     25.21721137	     25.21721137	     15.10385756	     -9.46467535	      0.00408387	    -10.42487318	      3.40234127	      2.93813396	     13.44277601	    -14.53030173	      2.68643334	     77.58245136	     45.35345899	      0.00000000	      0.00000000	      4.27015530	    -14.68333783	      1.15675031	     43.51210947	     45.49901578	      0.00000000	      0.00000000
     20.92500000	     -5.65282728	     -4.22972932	     -4.19156387	      1.01619976	      0.92783433	      0.40356755	     30.46636139	     -6.95023914	     -7.87556200	     68.01473867	     68.01473867	      3.29207895	    -17.87588174	      5.96736871	     17.19599219	     -5.53528595	     -6.45563174	     24.72748698	     24.72748698	     15.46418431	     -8.39758328	     -0.53859331	    -10.55361179	      3.45373042	      2.51529161	     12.80331519	    -14.16199678	      1.74224526	     71.00704464	     45.58932767	      0.00000000	      0.00000000	      5.73515708	    -15.50946523	      1.69395544	     44.28559022	     45.50777410	      0.00000000	      0.00000000
